<svg fill="none" height="27" viewBox="0 0 28 27" width="28" xmlns="http://www.w3.org/2000/svg"><path clip-rule="evenodd" d="m4.80105 4.13084c5.17401-5.17401 13.56405-5.1743 18.73835 0 2.4171 2.41709 3.7698 5.61105 3.8742 8.95096l.0065.4185c-.001 3.4914-1.3638 6.8519-3.8807 9.3689-5.1743 5.1743-13.56434 5.174-18.73835 0-5.174577-5.1746-5.174577-13.56379 0-18.73836zm1.70348 1.70348c-4.23376 4.23378-4.23376 11.09758 0 15.33138 4.23327 4.2332 11.09787 4.2334 15.33137 0 1.971-1.971 3.0757-4.5694 3.1687-7.2938l.0064-.3722-.0063-.3718c-.0923-2.7234-1.197-5.32182-3.1688-7.29358-4.2335-4.23346-11.0981-4.23322-15.33137 0zm8.87117.71059.0065.14158-.0008 5.60911 5.6106-.0001c.6652 0 1.2045.5392 1.2045 1.2045 0 .2559-.0797.4931-.2158.6882l-.0882.1118-.1005.1005c-.1773.1576-.4014.2637-.6489.2947l-.1511.0093-5.6106-.0001.0008 5.61c0 .2558-.0798.4931-.2158.6881l-.0882.1118-.1006.1006c-.2127.1891-.4929.304-.8.304-.6141 0-1.1208-.4595-1.1951-1.0534l-.0094-.1511-.0004-5.61-5.60859.0001-.14158-.0065c-1.41728-.133-1.41728-2.263 0-2.396l.14158-.0065 5.60859.0001.0004-5.60911.0065-.14158c.133-1.41729 2.2631-1.41729 2.3961 0z" fill="#fff" fill-rule="evenodd"/></svg>