<svg fill="none" height="40" viewBox="0 0 189 40" width="189" xmlns="http://www.w3.org/2000/svg"><g fill="#fff"><path d="m185.514 9.02265c-.88-.88349-2.074-1.37991-3.319-1.37991-1.244 0-2.438.49642-3.318 1.37991l-2.132 2.13845-9.103-9.11971c-2.716-2.719573-7.114-2.719573-9.829 0l13.992 14.04741-14.004 14.0474c1.303 1.3081 3.071 2.043 4.914 2.043 1.844 0 3.612-.7349 4.915-2.043l15.829-15.8463c1.362-1.4217 3.276-2.1736 5.239-2.0576z"/><path d="m166.981 16.101-9.724-9.75036c-1.303-1.30807-3.071-2.04302-4.915-2.04302-1.843 0-3.611.73495-4.914 2.04302l9.708 9.73816-9.708 9.7382c1.303 1.3081 3.071 2.043 4.914 2.043 1.844 0 3.612-.7349 4.915-2.043z"/><path d="m13.5403 24.1009-1.7933-2.5669c-.2579-.3558-.3506-.4043-.7697-.4043h-4.67058v8.9419c0 .4042.06447.4527.40298.4527h6.5888c.4473 0 .5118-.0647.7375-.4042l2.8209-4.4467h.403v6.1324h-17.2599v-.4487l2.8209-1.5402c.28611-.1617.35059-.2587.35059-.6427v-17.3056c0-.3841-.06448-.4811-.35059-.6428l-2.8209-1.52398v-.46488h17.0624v6.19706h-.403l-2.6073-4.4952c-.1934-.4042-.2902-.4042-.7052-.4042h-6.62511c-.3506 0-.40298.0646-.40298.4527v8.8448h4.65849c.403 0 .5118-.0647.7697-.4042l1.7933-2.5346h.3828v7.2076z"/><path d="m29.8974 31.8058v-.4042l2.3695-1.4432c.3506-.2264.403-.291.403-.6427.0323-1.0591.0323-5.138.0323-6.6458-.0202-4.0747-1.5556-5.053-3.2844-5.053s-3.0747 1.1561-3.9694 2.8297v8.8933c-.0393.2655.1001.5253.3426.6387l2.4179 1.4432v.4042h-8.3942v-.4042l2.4179-1.4432c.241-.1164.377-.3778.3345-.6427v-9.9848c.035-.2451-.0634-.4903-.2579-.6427l-2.4945-2.2153v-.4042h5.2791v3.0843c.9309-1.8635 2.563-3.4684 5.2187-3.4684 2.4179 0 4.1306 1.1562 4.864 3.5008 1.1848-2.28 2.8209-3.5008 5.3154-3.5008 3.1352 0 5.1864 2.1183 5.1864 6.4679 0 2.1546-.0323 4.6569-.0645 7.1632-.04.2688.1033.5315.3506.6427l2.4179 1.4432v.4042h-8.4022v-.4042l2.3695-1.4432c.3506-.2264.403-.291.403-.6427.0322-1.0591.0322-5.1379.0322-6.6458 0-4.0788-1.5353-5.0732-3.2238-5.0732-1.7933 0-3.1393 1.2127-4.0662 2.951.0792.5354.1222 1.0757.129 1.6169 0 2.1546-.0322 4.6569-.0645 7.1632-.0418.2541.0811.507.3063.6306l2.4179 1.4432v.4042z"/><path d="m48.7209 39.353v-.3841l2.3978-1.4471c.2509-.1077.3969-.3724.3546-.6428v-17.5279c.035-.2451-.0633-.4903-.2579-.6428l-2.4945-2.2152v-.4043h5.2792v2.8297c1.1847-2.3446 3.0103-3.2096 5.0252-3.2096 3.4576 0 6.3712 2.7933 6.3712 7.7695 0 5.6594-3.6511 8.7033-7.2336 8.7033-1.4239.0502-2.8042-.4977-3.8082-1.5118v5.9544c0 .4043.0604.5134.403.6751l3.7115 1.6695v.3841zm13.5041-15.6684c0-3.6625-1.6966-6.1971-4.2233-6.1971-1.346 0-2.7202.7398-3.647 2.6316v8.9257c.6862 1.1086 1.8989 1.7781 3.1997 1.7665 2.43 0 4.6706-2.2152 4.6706-7.1267z"/><path d="m67.3831 24.1009c0-5.2552 3.5503-8.38 7.6809-8.38 4.0298 0 7.4874 2.8904 7.4874 8.0849 0 5.2551-3.5503 8.3799-7.6809 8.3799-4.0339.0081-7.4874-2.8822-7.4874-8.0848zm11.8397-.1294c0-3.6907-1.3742-6.9651-4.32-6.9651-2.8491 0-4.1911 3.145-4.1911 6.9328 0 3.6948 1.3742 6.9691 4.3845 6.9691 2.7846 0 4.1266-3.145 4.1266-6.9368z"/><path d="m87.9312 18.5951 3.6471 9.7624 3.3004-8.2222-.544-1.5402c-.1081-.2872-.2726-.5498-.4836-.7721l-1.3097-1.3461v-.4043h7.1046v.4043l-2.2083 1.5401c-.258.1617-.2862.2547-.1935.5458l3.4258 9.6654 4.001-9.7625c.097-.2223.065-.3193-.129-.4487l-2.526-1.5401v-.4043h6.242v.4043l-1.793 1.6169c-.213.1485-.37.3631-.448.6104l-5.347 13.0975h-1.3746l-3.7477-9.9201-4.0299 9.9201h-1.3782l-5.1542-13.2066c-.1053-.2877-.2685-.5505-.4795-.7721l-1.3138-1.3461v-.4043h7.1732v.4043l-2.2406 1.5401c-.2741.1739-.2741.2709-.1935.5781z"/><path d="m111.627 23.4461c0 5.1702 2.688 6.7104 5.186 6.7104 1.862-.0119 3.63-.8173 4.864-2.2153l.319.2588c-1.149 2.7286-3.519 4.0141-6.239 4.0141-3.937 0-7.141-2.664-7.141-8.0606 0-5.5866 3.269-8.4123 7.045-8.4123 3.361 0 6.016 1.8959 6.016 7.0338v.6711zm.032-1.2128h7.072c-.125-3.2339-1.12-5.1985-3.264-5.1985-1.991-.0283-3.59 1.8029-3.816 5.1702z"/><path d="m129.391 29.0529v-7.1591c.378-1.1642 1.611-4.2486 3.655-4.2486 1.499 0 2.732.9904 2.732 5.049v.7519h2.897c0-.4285 0-.8449 0-1.2491 0-4.3133-1.857-6.4234-4.678-6.4234-3.031 0-4.316 2.8701-4.961 4.6973v-4.3295h-5.239v.4043l2.483 2.2031c.193.1517.291.3949.257.6387v9.9443c.04.2678-.104.529-.35.6387l-2.39 1.4391v.38h9.716v-.38l-3.695-1.6654c-.363-.1779-.427-.2749-.427-.6913z"/></g></svg>